<svg width="28" height="19" viewBox="0 0 28 19" fill="none" xmlns="http://www.w3.org/2000/svg">
<path d="M1.27273 8.09959C0.56982 8.09959 6.14508e-08 8.66941 0 9.37232C-6.14495e-08 10.0752 0.569819 10.645 1.27273 10.645L1.27273 8.09959ZM27.6272 10.2723C28.1243 9.77524 28.1243 8.9694 27.6272 8.47237L19.5276 0.37278C19.0306 -0.124251 18.2248 -0.124251 17.7277 0.372779C17.2307 0.86981 17.2307 1.67566 17.7277 2.17269L24.9274 9.37232L17.7277 16.572C17.2307 17.069 17.2307 17.8748 17.7277 18.3719C18.2248 18.8689 19.0306 18.8689 19.5276 18.3719L27.6272 10.2723ZM1.27273 10.645L26.7273 10.645L26.7273 8.09959L1.27273 8.09959L1.27273 10.645Z" fill="#666666"/>
</svg>
