<svg width="32" height="26" viewBox="0 0 32 26" fill="none" xmlns="http://www.w3.org/2000/svg">
<path d="M32 3.07773C30.8236 3.60054 29.5576 3.95319 28.2292 4.11101C29.5855 3.2992 30.6255 2.01329 31.1159 0.479293C29.8473 1.232 28.4429 1.77819 26.947 2.07304C25.7498 0.797522 24.0434 0 22.155 0C18.5298 0 15.5904 2.93875 15.5904 6.56397C15.5904 7.07768 15.6483 7.57841 15.7606 8.05965C10.3042 7.78558 5.46617 5.17285 2.22804 1.20148C1.66291 2.17045 1.33942 3.2979 1.33942 4.50197C1.33942 6.77894 2.49826 8.78833 4.25991 9.96513C3.18422 9.93071 2.17153 9.63521 1.28616 9.14358C1.28551 9.17086 1.28551 9.19878 1.28551 9.22671C1.28551 12.4064 3.54863 15.0588 6.55226 15.6627C6.00142 15.8121 5.42135 15.8926 4.82244 15.8926C4.39892 15.8926 3.98774 15.8517 3.58695 15.7744C4.42295 18.382 6.84717 20.2803 9.71959 20.3329C7.47271 22.0936 4.64251 23.1431 1.56612 23.1431C1.03672 23.1431 0.513814 23.1119 0 23.0509C2.9062 24.9141 6.35674 26 10.0639 26C22.1401 26 28.743 15.9985 28.743 7.32447C28.743 7.04002 28.7372 6.75621 28.7248 6.47435C30.0071 5.55083 31.1205 4.39416 32 3.07773Z" fill="white"/>
</svg>
