<svg width="20" height="15" viewBox="0 0 20 15" fill="none" xmlns="http://www.w3.org/2000/svg">
<path d="M1.01847 6.48153C0.455987 6.48153 -4.91738e-08 6.93751 0 7.5C4.91748e-08 8.06249 0.455987 8.51847 1.01847 8.51847L1.01847 6.48153ZM19.5453 8.22017C19.9431 7.82243 19.9431 7.17757 19.5453 6.77983L13.0638 0.298295C12.6661 -0.0994444 12.0212 -0.0994444 11.6235 0.298295C11.2257 0.696034 11.2257 1.3409 11.6235 1.73864L17.3848 7.5L11.6235 13.2614C11.2257 13.6591 11.2257 14.304 11.6235 14.7017C12.0212 15.0994 12.6661 15.0994 13.0638 14.7017L19.5453 8.22017ZM1.01847 8.51847L18.8252 8.51847L18.8252 6.48152L1.01847 6.48153L1.01847 8.51847Z" fill="#404040"/>
</svg>
