<svg width="39" height="39" viewBox="0 0 39 39" fill="none" xmlns="http://www.w3.org/2000/svg">
<path d="M19.5 0C8.775 0 0 8.775 0 19.5C0 30.225 8.775 39 19.5 39C30.225 39 39 30.225 39 19.5C39 8.775 30.225 0 19.5 0ZM19.5 34.125C11.375 34.125 4.875 27.625 4.875 19.5C4.875 11.375 11.375 4.875 19.5 4.875C27.625 4.875 34.125 11.375 34.125 19.5C34.125 27.625 27.625 34.125 19.5 34.125Z" fill="#FF7900"/>
<circle cx="19.8195" cy="19.8197" r="15.9836" fill="#FF7900"/>
<path d="M22.75 18.2V11.375C22.75 9.5875 21.2875 8.125 19.5 8.125C17.7125 8.125 16.25 9.5875 16.25 11.375V19.5C16.25 20.3125 16.575 21.125 17.225 21.775L22.1 26.65C22.75 27.3 23.5625 27.625 24.375 27.625C25.1875 27.625 26 27.3 26.65 26.65C27.95 25.35 27.95 23.4 26.65 22.1L22.75 18.2Z" fill="white"/>
</svg>
