<svg width="61" height="61" viewBox="0 0 61 61" fill="none" xmlns="http://www.w3.org/2000/svg">
<path d="M38.0918 42.9176C35.9167 44.5985 33.2454 45.5104 30.4965 45.5104C27.7476 45.5104 25.0763 44.5986 22.9012 42.9177C21.4374 43.5769 20.1951 44.6447 19.3234 45.9928C18.4517 47.3409 17.9877 48.912 17.9871 50.5174V57.1861H43.006V50.5174C43.0054 48.912 42.5414 47.3409 41.6697 45.9928C40.798 44.6446 39.5556 43.5768 38.0918 42.9176Z" fill="#0074D3"/>
<path d="M30.4956 42.1747C35.5621 42.1747 39.6692 38.0676 39.6692 33.0011C39.6692 27.9347 35.5621 23.8275 30.4956 23.8275C25.4292 23.8275 21.322 27.9347 21.322 33.0011C21.322 38.0676 25.4292 42.1747 30.4956 42.1747Z" fill="#0074D3"/>
<path d="M53.8456 3.81239H40.5052C39.6201 3.8124 38.7712 4.16401 38.1453 4.78988C37.5195 5.41575 37.1679 6.26461 37.1678 7.14972V17.7103C37.1678 18.5954 37.5195 19.4443 38.1453 20.0702C38.7712 20.696 39.6201 21.0477 40.5052 21.0477H44.1176V26.3294L50.2333 21.0477H53.8456C54.2839 21.0477 54.7179 20.9613 55.1228 20.7936C55.5277 20.6259 55.8956 20.3801 56.2055 20.0702C56.5154 19.7603 56.7612 19.3924 56.9289 18.9875C57.0967 18.5826 57.183 18.1486 57.183 17.7103V7.14972C57.183 6.26461 56.8314 5.41574 56.2055 4.78987C55.5796 4.164 54.7308 3.81239 53.8456 3.81239Z" fill="#0074D3"/>
<path d="M20.49 19.8418V14.0992C20.49 13.734 20.4181 13.3723 20.2783 13.0349C20.1386 12.6975 19.9337 12.3909 19.6755 12.1326C19.4172 11.8744 19.1107 11.6695 18.7732 11.5298C18.4358 11.39 18.0742 11.3181 17.709 11.3181H6.5919C6.22668 11.3181 5.86503 11.39 5.5276 11.5298C5.19018 11.6695 4.88359 11.8744 4.62533 12.1326C4.36708 12.3909 4.16222 12.6975 4.02246 13.0349C3.8827 13.3723 3.81076 13.734 3.81077 14.0992V19.8418C3.81077 20.207 3.88271 20.5687 4.02247 20.9061C4.16224 21.2435 4.3671 21.5501 4.62535 21.8083C4.8836 22.0666 5.19019 22.2714 5.52761 22.4112C5.86504 22.551 6.22668 22.6229 6.5919 22.6229H9.46318L14.8376 27.1634V22.6229H17.709C18.4465 22.6229 19.1539 22.3299 19.6755 21.8083C20.197 21.2868 20.49 20.5794 20.49 19.8418Z" fill="#0074D3"/>
</svg>
