<svg width="57" height="57" viewBox="0 0 57 57" fill="none" xmlns="http://www.w3.org/2000/svg">
<path d="M10.2984 11.8891C15.0365 11.4794 17.557 13.1805 18.5456 14.1068C20.8974 15.2928 23.491 15.9207 26.1248 15.9415C28.8385 15.9363 31.5058 15.2373 33.8733 13.9108C34.9776 12.9757 37.4714 11.5061 41.9067 11.8891C42.3319 11.9247 42.7538 11.7904 43.0802 11.5158C43.4067 11.2411 43.6111 10.8483 43.6488 10.4233C43.6865 9.99836 43.5543 9.57576 43.2813 9.24793C43.0082 8.92011 42.6165 8.71375 42.1917 8.67396C38.8746 8.24221 35.5112 8.98928 32.6887 10.7847L34.4433 5.27177C34.5504 4.93204 34.5759 4.57185 34.5177 4.22041C34.4596 3.86897 34.3194 3.53618 34.1086 3.24904C33.8978 2.9619 33.6223 2.72848 33.3044 2.56773C32.9865 2.40698 32.6353 2.32341 32.279 2.3238H19.935C19.5737 2.32256 19.2174 2.40784 18.8959 2.5725C18.5743 2.73716 18.2969 2.97642 18.0868 3.27026C17.8766 3.56411 17.7399 3.904 17.688 4.26151C17.6361 4.61902 17.6706 4.98376 17.7886 5.32521L19.6945 10.9094C17.8865 9.63584 14.7783 8.25537 10.0223 8.67396C9.59597 8.71057 9.20162 8.91506 8.92603 9.24242C8.65044 9.56979 8.51618 9.99323 8.5528 10.4196C8.58941 10.8459 8.79389 11.2403 9.12126 11.5159C9.44863 11.7915 9.87206 11.9257 10.2984 11.8891Z" fill="black"/>
<path d="M47.1971 39.4006C46.6292 38.1997 46.2958 36.9015 46.2147 35.5756C45.4214 32.9531 46.2147 31.7112 44.9761 30.7266C43.425 29.4936 44.2241 29.377 43.6401 27.4836C43.0562 25.5902 44.0854 24.0469 42.7495 21.8203C41.8589 19.5938 42.121 19.2967 40.8131 18.061C39.5051 16.8253 37.9417 15.8919 36.2334 15.3268C33.2535 17.2575 29.7823 18.2929 26.2317 18.3104C22.6271 18.2782 19.0968 17.2818 16.0073 15.4248C7.02089 18.6399 6.23714 29.8083 6.34401 34.6712C6.37685 36.3059 6.02606 37.9257 5.31979 39.4004L2.42526 45.4655C1.96621 46.4242 1.75767 47.4837 1.81911 48.5448C1.88055 49.606 2.20997 50.6342 2.7766 51.5336C3.34323 52.4329 4.12858 53.1739 5.05926 53.6874C5.98995 54.2008 7.03561 54.47 8.09854 54.4698H44.4182C45.4815 54.4703 46.5275 54.2015 47.4587 53.6883C48.39 53.1752 49.176 52.4344 49.7434 51.5352C50.3108 50.6361 50.6412 49.6078 50.7036 48.5464C50.766 47.485 50.5585 46.425 50.1004 45.4655L47.1971 39.4006ZM27.7919 44.5112H27.4404V47.4592C27.4404 47.8135 27.2997 48.1533 27.0491 48.4039C26.7986 48.6544 26.4588 48.7951 26.1045 48.7951C25.7502 48.7951 25.4104 48.6544 25.1598 48.4039C24.9093 48.1533 24.7686 47.8135 24.7686 47.4592V44.5112H20.8642C20.6888 44.5112 20.5151 44.4767 20.353 44.4095C20.1909 44.3424 20.0436 44.244 19.9196 44.1199C19.7955 43.9959 19.6971 43.8486 19.63 43.6865C19.5628 43.5245 19.5283 43.3507 19.5283 43.1753C19.5283 42.9999 19.5628 42.8261 19.63 42.6641C19.6971 42.502 19.7955 42.3547 19.9196 42.2306C20.0436 42.1066 20.1909 42.0082 20.353 41.941C20.5151 41.8739 20.6888 41.8394 20.8642 41.8394H27.7919C28.38 41.8394 28.9441 41.6057 29.36 41.1898C29.7759 40.7739 30.0095 40.2099 30.0095 39.6217C30.0095 39.0335 29.7759 38.4695 29.36 38.0536C28.9441 37.6377 28.38 37.404 27.7919 37.404H24.6842C23.3167 37.404 22.0053 36.8608 21.0383 35.8939C20.0713 34.9269 19.5281 33.6154 19.5281 32.2479C19.5281 30.8805 20.0713 29.569 21.0383 28.602C22.0053 27.6351 23.3167 27.0919 24.6842 27.0919H24.7686V23.829C24.7686 23.4746 24.9093 23.1348 25.1598 22.8843C25.4104 22.6338 25.7502 22.493 26.1045 22.493C26.4588 22.493 26.7986 22.6338 27.0491 22.8843C27.2997 23.1348 27.4404 23.4746 27.4404 23.829V27.0923H30.7259C31.0803 27.0923 31.4201 27.233 31.6706 27.4836C31.9211 27.7341 32.0619 28.0739 32.0619 28.4282C32.0619 28.7825 31.9211 29.1223 31.6706 29.3729C31.4201 29.6234 31.0803 29.7642 30.7259 29.7642H24.6842C24.0254 29.7642 23.3935 30.0259 22.9276 30.4918C22.4617 30.9577 22.2 31.5895 22.2 32.2484C22.2 32.9072 22.4617 33.5391 22.9276 34.005C23.3935 34.4709 24.0254 34.7326 24.6842 34.7326H27.7919C29.0887 34.7326 30.3323 35.2478 31.2493 36.1647C32.1663 37.0817 32.6814 38.3254 32.6814 39.6221C32.6814 40.9189 32.1663 42.1626 31.2493 43.0796C30.3323 43.9965 29.0887 44.5112 27.7919 44.5112Z" fill="black"/>
</svg>
