<svg width="31" height="31" viewBox="0 0 31 31" fill="none" xmlns="http://www.w3.org/2000/svg">
<path d="M31 12.3181V25.0084C31 28.3137 28.3126 31 25.0092 31H5.99075C2.68634 31 0 28.3137 0 25.0084V12.3181V5.99055C0 2.68625 2.68634 0 5.99075 0H25.0081C28.3125 0 31 2.68625 31 5.99055V12.3181Z" fill="white"/>
<path d="M15.6371 21.6039C18.6819 21.6039 21.1642 19.1261 21.1642 16.0791C21.1642 14.8763 20.7706 13.7658 20.1181 12.8587C19.1132 11.467 17.4813 10.5543 15.6382 10.5543C13.794 10.5543 12.1633 11.4659 11.1572 12.8576C10.5036 13.7647 10.1134 14.8752 10.1123 16.078C10.1112 19.125 12.5912 21.6039 15.6371 21.6039Z" fill="black"/>
<path d="M27.7014 9.32027V4.68921V4L27.0077 4.00222L22.3789 4.01667L22.3978 9.33806L27.7014 9.32027Z" fill="black"/>
<path d="M24.2222 16.0792C24.2222 20.8114 20.3726 24.6643 15.6382 24.6643C10.9037 24.6643 7.05412 20.8114 7.05412 16.0792C7.05412 14.9409 7.2809 13.8526 7.68553 12.8588H3V25.7092C3 27.37 4.34841 28.7151 6.00808 28.7151H25.2649C26.9246 28.7151 28.273 27.37 28.273 25.7092V12.8588H23.5863C23.9921 13.8526 24.2222 14.9409 24.2222 16.0792Z" fill="black"/>
</svg>
