<svg width="16" height="16" viewBox="0 0 16 16" fill="none" xmlns="http://www.w3.org/2000/svg">
<path fill-rule="evenodd" clip-rule="evenodd" d="M7.83104 7.67244e-08C8.80044 3.43507e-08 9.58629 0.785852 9.58629 1.75525L9.58629 14.2447C9.58629 15.2141 8.80044 15.9999 7.83104 15.9999C6.86164 15.9999 6.07579 15.2141 6.07579 14.2447L6.07579 1.75525C6.07579 0.785852 6.86164 1.19098e-07 7.83104 7.67244e-08Z" fill="white"/>
<path fill-rule="evenodd" clip-rule="evenodd" d="M16 7.99994C16 8.96934 15.2141 9.75519 14.2448 9.75519L1.75534 9.75519C0.785944 9.75519 9.18961e-05 8.96933 9.19808e-05 7.99994C9.20656e-05 7.03054 0.785944 6.24469 1.75534 6.24469L14.2448 6.24469C15.2141 6.24469 16 7.03054 16 7.99994Z" fill="white"/>
</svg>
