<svg width="17" height="16" viewBox="0 0 17 16" fill="none" xmlns="http://www.w3.org/2000/svg">
<path d="M5.73819 5.14618C5.73819 5.14618 2.56451 5.4977 0.447381 5.73271C0.256558 5.75581 0.0878312 5.88336 0.0245585 6.0772C-0.0387143 6.27103 0.0245583 6.4729 0.165164 6.60045C1.73794 8.03564 4.10113 10.1849 4.10113 10.1849C4.09912 10.1849 3.45233 13.3114 3.02248 15.3974C2.98633 15.5862 3.05462 15.786 3.21933 15.9056C3.38304 16.0251 3.59394 16.0271 3.75966 15.9337C5.61164 14.8811 8.3856 13.2983 8.3856 13.2983C8.3856 13.2983 11.1606 14.8811 13.0095 15.9347C13.1783 16.0271 13.3892 16.0251 13.5529 15.9056C13.7176 15.786 13.7859 15.5862 13.7487 15.3984C13.3189 13.3114 12.6731 10.1849 12.6731 10.1849C12.6731 10.1849 15.0363 8.03564 16.609 6.60347C16.7497 6.4719 16.8119 6.27003 16.7497 6.0772C16.6874 5.88437 16.5187 5.75682 16.3278 5.73472C14.2107 5.4977 11.036 5.14618 11.036 5.14618C11.036 5.14618 9.72035 2.23564 8.84357 0.295273C8.76122 0.121524 8.58847 0 8.3856 0C8.18273 0 8.00898 0.122528 7.93064 0.295273C7.05285 2.23564 5.73819 5.14618 5.73819 5.14618Z" fill="black"/>
</svg>
