<svg width="50" height="50" viewBox="0 0 50 50" fill="none" xmlns="http://www.w3.org/2000/svg">
<path d="M29.6772 20.4895H4.24898C3.68466 20.4895 3.14345 20.7136 2.74439 21.1127C2.34534 21.5117 2.12114 22.0529 2.12109 22.6172V39.4353C2.12111 39.9997 2.34531 40.5409 2.74436 40.94C3.14341 41.339 3.68464 41.5632 4.24898 41.5632H12.1234C12.4251 41.5632 12.7144 41.6831 12.9276 41.8964C13.1409 42.1097 13.2608 42.3989 13.2608 42.7006V46.6701C13.2608 46.9122 13.3309 47.1491 13.4626 47.3523C13.5943 47.5554 13.7821 47.716 14.0031 47.8147C14.2242 47.9135 14.4691 47.9461 14.7083 47.9086C14.9475 47.8712 15.1707 47.7653 15.351 47.6037L21.601 42.0021C21.9164 41.7195 22.3251 41.5631 22.7486 41.5631H29.6771C30.2414 41.563 30.7826 41.3388 31.1817 40.9398C31.5807 40.5407 31.8049 39.9995 31.8049 39.4352V22.6172C31.8049 22.0529 31.5807 21.5117 31.1817 21.1127C30.7827 20.7137 30.2415 20.4895 29.6772 20.4895ZM16.963 34.5737H8.59813C8.4575 34.5771 8.31762 34.5524 8.1867 34.5009C8.05578 34.4495 7.93648 34.3724 7.83581 34.2741C7.73514 34.1759 7.65514 34.0585 7.60052 33.9289C7.5459 33.7992 7.51777 33.66 7.51777 33.5193C7.51777 33.3787 7.5459 33.2394 7.60052 33.1098C7.65514 32.9802 7.73514 32.8628 7.83581 32.7645C7.93648 32.6663 8.05578 32.5892 8.1867 32.5377C8.31762 32.4863 8.4575 32.4615 8.59813 32.4649H16.963C17.1036 32.4615 17.2435 32.4863 17.3744 32.5377C17.5053 32.5892 17.6246 32.6663 17.7253 32.7645C17.826 32.8628 17.906 32.9802 17.9606 33.1098C18.0152 33.2394 18.0433 33.3787 18.0433 33.5193C18.0433 33.66 18.0152 33.7992 17.9606 33.9289C17.906 34.0585 17.826 34.1759 17.7253 34.2741C17.6246 34.3724 17.5053 34.4495 17.3744 34.5009C17.2435 34.5524 17.1036 34.5771 16.963 34.5737ZM25.3286 34.5737H22.0663C21.9256 34.5771 21.7857 34.5524 21.6548 34.5009C21.5239 34.4495 21.4046 34.3724 21.3039 34.2741C21.2033 34.1759 21.1233 34.0585 21.0686 33.9289C21.014 33.7992 20.9859 33.66 20.9859 33.5193C20.9859 33.3787 21.014 33.2394 21.0686 33.1098C21.1233 32.9802 21.2033 32.8628 21.3039 32.7645C21.4046 32.6663 21.5239 32.5892 21.6548 32.5377C21.7857 32.4863 21.9256 32.4615 22.0663 32.4649H25.3286C25.6038 32.4716 25.8655 32.5857 26.0577 32.7827C26.25 32.9797 26.3576 33.244 26.3576 33.5193C26.3576 33.7946 26.25 34.059 26.0577 34.256C25.8655 34.453 25.6038 34.567 25.3286 34.5737ZM25.3286 29.2316H8.59813C8.4575 29.235 8.31762 29.2103 8.1867 29.1588C8.05578 29.1074 7.93648 29.0303 7.83581 28.932C7.73514 28.8338 7.65514 28.7164 7.60052 28.5867C7.5459 28.4571 7.51777 28.3179 7.51777 28.1772C7.51777 28.0365 7.5459 27.8973 7.60052 27.7677C7.65514 27.638 7.73514 27.5207 7.83581 27.4224C7.93648 27.3242 8.05578 27.247 8.1867 27.1956C8.31762 27.1441 8.4575 27.1194 8.59813 27.1228H25.3286C25.6038 27.1295 25.8655 27.2436 26.0577 27.4406C26.25 27.6376 26.3576 27.9019 26.3576 28.1772C26.3576 28.4525 26.25 28.7168 26.0577 28.9138C25.8655 29.1109 25.6038 29.2249 25.3286 29.2316Z" fill="#07AA2B"/>
<path d="M45.7474 5.2247H20.3192C20.0398 5.2247 19.7631 5.27974 19.5049 5.38668C19.2468 5.49362 19.0122 5.65036 18.8146 5.84795C18.617 6.04554 18.4603 6.28012 18.3534 6.53829C18.2464 6.79646 18.1914 7.07316 18.1914 7.35259V18.3802H29.6767C30.8 18.3815 31.877 18.8283 32.6713 19.6226C33.4656 20.417 33.9125 21.4939 33.9138 22.6172V28.211L38.5194 32.3386C38.6997 32.5002 38.9229 32.6061 39.1621 32.6436C39.4013 32.681 39.6462 32.6485 39.8673 32.5497C40.0883 32.451 40.2761 32.2904 40.4078 32.0873C40.5396 31.8842 40.6097 31.6473 40.6098 31.4052V27.4356C40.6097 27.2863 40.6391 27.1384 40.6963 27.0004C40.7534 26.8624 40.8372 26.737 40.9428 26.6314C41.0484 26.5258 41.1738 26.442 41.3117 26.3849C41.4497 26.3277 41.5976 26.2983 41.747 26.2983H45.7474C46.0269 26.2983 46.3036 26.2432 46.5617 26.1363C46.8199 26.0293 47.0545 25.8726 47.252 25.675C47.4496 25.4774 47.6064 25.2428 47.7133 24.9846C47.8202 24.7265 47.8752 24.4498 47.8752 24.1703V7.35259C47.8752 7.07316 47.8202 6.79646 47.7133 6.53829C47.6064 6.28012 47.4496 6.04554 47.252 5.84795C47.0545 5.65036 46.8199 5.49362 46.5617 5.38668C46.3036 5.27974 46.0269 5.2247 45.7474 5.2247ZM41.3987 19.211H35.844C35.7034 19.2144 35.5635 19.1896 35.4326 19.1382C35.3016 19.0867 35.1823 19.0096 35.0817 18.9114C34.981 18.8131 34.901 18.6957 34.8464 18.5661C34.7918 18.4365 34.7636 18.2972 34.7636 18.1566C34.7636 18.0159 34.7918 17.8767 34.8464 17.747C34.901 17.6174 34.981 17.5 35.0817 17.4018C35.1823 17.3035 35.3016 17.2264 35.4326 17.175C35.5635 17.1235 35.7034 17.0988 35.844 17.1022H41.3987C41.5393 17.0988 41.6792 17.1235 41.8101 17.175C41.941 17.2264 42.0603 17.3035 42.161 17.4018C42.2617 17.5 42.3417 17.6174 42.3963 17.747C42.4509 17.8767 42.479 18.0159 42.479 18.1566C42.479 18.2972 42.4509 18.4365 42.3963 18.5661C42.3417 18.6957 42.2617 18.8131 42.161 18.9114C42.0603 19.0096 41.941 19.0867 41.8101 19.1382C41.6792 19.1896 41.5393 19.2144 41.3987 19.211ZM41.3987 14.0298H24.6682C24.5276 14.0332 24.3877 14.0085 24.2568 13.957C24.1259 13.9056 24.0066 13.8284 23.9059 13.7302C23.8052 13.632 23.7252 13.5146 23.6706 13.3849C23.616 13.2553 23.5878 13.1161 23.5878 12.9754C23.5878 12.8347 23.616 12.6955 23.6706 12.5659C23.7252 12.4362 23.8052 12.3189 23.9059 12.2206C24.0066 12.1224 24.1259 12.0452 24.2568 11.9938C24.3877 11.9423 24.5276 11.9176 24.6682 11.921H41.3987C41.5393 11.9176 41.6792 11.9423 41.8101 11.9938C41.941 12.0452 42.0603 12.1224 42.161 12.2206C42.2617 12.3189 42.3417 12.4362 42.3963 12.5659C42.4509 12.6955 42.479 12.8347 42.479 12.9754C42.479 13.1161 42.4509 13.2553 42.3963 13.3849C42.3417 13.5146 42.2617 13.632 42.161 13.7302C42.0603 13.8284 41.941 13.9056 41.8101 13.957C41.6792 14.0085 41.5393 14.0332 41.3987 14.0298Z" fill="#07AA2B"/>
</svg>
